<svg xmlns="http://www.w3.org/2000/svg" viewBox="0 0 158.79 43.41"><defs><style>.cls-1{fill:#163967;}.cls-2{fill:#00c9a7;}.cls-3{fill:#2d2d2d;}</style></defs><g id="katman_2" data-name="katman 2"><g id="katman_1-2" data-name="katman 1"><path class="cls-1" d="M0,6.15H12.64V9.74H3.56V15h8.51v3.59H3.56v6.09h9.28v3.59H0Z"/><path class="cls-1" d="M14.66,22.14a8.45,8.45,0,0,0,6.43,2.95c2.54,0,3.82-1.33,3.82-2.73,0-2-1.34-2.69-4.44-4.15s-5.27-3.08-5.27-6.54c0-3.64,2.85-5.9,6.66-5.9A7.74,7.74,0,0,1,26.67,7.3v4A6.42,6.42,0,0,0,22,9.39c-2.05,0-3.19.95-3.19,2.28,0,1.78,2,2.54,4.27,3.65,3.56,1.75,5.41,3.49,5.41,7S26,28.65,21.29,28.65a10.33,10.33,0,0,1-6.63-2.26Z"/><path class="cls-1" d="M33.56,9.74H28.18V6.15H42.5V9.74H37.12V28.27H33.56Z"/><path class="cls-1" d="M44.41,6.15H57V9.74H48V15h8.51v3.59H48v6.09h9.28v3.59H44.41Z"/><path class="cls-2" d="M67.14,22.14a8.45,8.45,0,0,0,6.43,2.95c2.53,0,3.81-1.33,3.81-2.73,0-2-1.33-2.69-4.44-4.15-3-1.4-5.26-3.08-5.26-6.54,0-3.64,2.84-5.9,6.66-5.9A7.74,7.74,0,0,1,79.15,7.3v4a6.43,6.43,0,0,0-4.73-1.93c-2,0-3.18.95-3.18,2.28,0,1.78,2.05,2.54,4.27,3.65,3.55,1.75,5.4,3.49,5.4,7s-2.44,6.29-7.14,6.29a10.31,10.31,0,0,1-6.63-2.26Z"/><path class="cls-2" d="M91,5.08l9.79,23.19H97L95.2,24H86.66L84.9,28.27H81.14Zm2.91,15.48-2.94-7.2L88,20.56Z"/><path class="cls-2" d="M111,5.77a9.69,9.69,0,0,1,6,2v4a8.58,8.58,0,0,0-6-2.38c-4,0-7,3.36-7,7.87s3,7.83,7,7.83a6.51,6.51,0,0,0,4.75-2v-3.9h-5.52V15.58h8.88v8.91A9.94,9.94,0,0,1,111,28.65c-5.84,0-10.54-4.83-10.54-11.42S105.11,5.77,111,5.77ZM106.08,0h2.62a2.22,2.22,0,0,0,2.19,1.84A2.19,2.19,0,0,0,113.05,0h2.62a4.83,4.83,0,0,1-4.78,4.5A4.84,4.84,0,0,1,106.08,0Z"/><path class="cls-2" d="M121.85,6.15h3.56V24.68h7.88v3.59H121.85Z"/><path class="cls-2" d="M135.65,6.15h3.56V28.27h-3.56Z"/><path class="cls-2" d="M142.88,6.15h3.56V16.21l7.74-10.06h4.3L150,16.94l8.79,11.33h-4.38l-8-10.35V28.27h-3.56Z"/><path class="cls-3" d="M1,39.34a1.6,1.6,0,0,0,1.46.86c.64,0,.86-.34.86-.64,0-.57-.65-.71-1.45-1A1.89,1.89,0,0,1,.46,36.64a1.81,1.81,0,0,1,1.93-1.83,2.2,2.2,0,0,1,1.93,1.06l-.86.73a1.18,1.18,0,0,0-1-.51c-.43,0-.7.23-.7.53,0,.54.46.56,1.4,1s1.48,1,1.48,1.92a1.89,1.89,0,0,1-2.15,2A2.46,2.46,0,0,1,.07,40.06Z"/><path class="cls-3" d="M8.34,34.92H9.62v6.46H8.34Z"/><path class="cls-3" d="M13.71,34.92H15V37.8l2.24-2.88h1.53l-2.23,2.86,2.29,3.6h-1.5l-1.66-2.59-.67.83v1.76H13.71Z"/><path class="cls-3" d="M31.9,41.38l-.37-.44a2.31,2.31,0,0,1-1.54.55A1.77,1.77,0,0,1,28,39.71a2,2,0,0,1,1.06-1.79v0a2.05,2.05,0,0,1-.42-1.21A1.62,1.62,0,0,1,30.36,35a1.42,1.42,0,0,1,1.52,1.46,1.83,1.83,0,0,1-1.1,1.61v0c.32.39.66.85.94,1.16a4.32,4.32,0,0,0,.47-1.52h1.14a5,5,0,0,1-.94,2.38c.32.4.64.81,1,1.22Zm-1-1.23c-.35-.39-.8-1-1.26-1.53a1,1,0,0,0-.44.86.93.93,0,0,0,.93,1A1,1,0,0,0,30.94,40.15Zm-1.13-3.6a1.42,1.42,0,0,0,.38.9c.41-.32.62-.56.62-.92s-.16-.62-.49-.62S29.81,36.22,29.81,36.55Z"/><path class="cls-3" d="M43.18,34.92h2.2a2.94,2.94,0,0,1,3.08,3.24,2.89,2.89,0,0,1-3.07,3.22H43.18Zm2.12,5.16c1.47,0,1.87-.85,1.87-1.92s-.4-1.95-1.88-1.95h-.83v3.87Z"/><path class="cls-3" d="M55.06,34.81A3.36,3.36,0,1,1,52,38.16,3.21,3.21,0,0,1,55.06,34.81Zm0,5.4a2.06,2.06,0,1,0-1.82-2.05A1.92,1.92,0,0,0,55.06,40.21Z"/><path class="cls-3" d="M64.77,34.81a2.92,2.92,0,0,1,2.25,1l-.86.85a1.84,1.84,0,0,0-1.39-.6,2.05,2.05,0,0,0,0,4.08,1.79,1.79,0,0,0,1.27-.5v-.88H64.52V37.55h2.72v2.62a3,3,0,0,1-2.47,1.32,3.35,3.35,0,0,1,0-6.68Zm-1.5-1.69h.88a.57.57,0,0,0,.58.43.59.59,0,0,0,.59-.43h.88a1.47,1.47,0,0,1-2.93,0Z"/><path class="cls-3" d="M73.55,34.54l3,6.84H75.21l-.45-1H72.33l-.45,1H70.53Zm.73,4.6-.74-1.7-.73,1.7Z"/><path class="cls-3" d="M80.14,34.92h1.28v5.16h2.27v1.3H80.14Z"/><path class="cls-3" d="M93.58,39.34A1.59,1.59,0,0,0,95,40.2c.64,0,.87-.34.87-.64,0-.57-.65-.71-1.46-1A1.89,1.89,0,0,1,93,36.64,1.81,1.81,0,0,1,95,34.81a2.2,2.2,0,0,1,1.93,1.06L96,36.6a1.19,1.19,0,0,0-1-.51c-.43,0-.7.23-.7.53,0,.54.46.56,1.4,1s1.48,1,1.48,1.92a1.89,1.89,0,0,1-2.15,2,2.49,2.49,0,0,1-2.39-1.43Z"/><path class="cls-3" d="M103.27,34.54l3,6.84h-1.37l-.45-1h-2.42l-.45,1h-1.36Zm.73,4.6-.74-1.7-.73,1.7Z"/><path class="cls-3" d="M112.29,34.81A3,3,0,0,1,114.64,36l-.88.83a1.87,1.87,0,0,0-1.47-.74,2.05,2.05,0,0,0,0,4.08,1.87,1.87,0,0,0,1.48-.75l.88.83a3,3,0,0,1-2.23,1.21l-.14.33c.3,0,.55.26.55.69,0,.6-.4.91-1,.91a1.39,1.39,0,0,1-.78-.25l.25-.58a.61.61,0,0,0,.39.13.28.28,0,0,0,.31-.29c0-.27-.18-.33-.49-.33l.24-.66a3.36,3.36,0,0,1,.55-6.62Z"/><path class="cls-3" d="M124.56,34.92h4v1.29h-2.68v1.22h2.51V38.7h-2.51v1.38h2.74v1.3h-4Z"/><path class="cls-3" d="M132.44,34.92h1.29V37.8L136,34.92h1.52l-2.22,2.86,2.29,3.6h-1.51l-1.66-2.59-.66.83v1.76h-1.29Z"/><path class="cls-3" d="M141.11,34.92h1.28v6.46h-1.28Zm0-1.09a.65.65,0,0,1,.62-.66.66.66,0,1,1-.62.66Z"/><path class="cls-3" d="M146.48,34.68l3.06,3.73,3.07-3.73v6.7h-1.23V38.1l-1.84,2.29-1.83-2.29v3.28h-1.23Z"/><path class="cls-3" d="M156.68,34.92H158v6.46h-1.29Zm0-1.09a.65.65,0,0,1,.62-.66.66.66,0,1,1-.62.66Z"/></g></g></svg>